<svg width="500" height="500" viewBox="0 0 500 500" fill="none" xmlns="http://www.w3.org/2000/svg"><g clip-path="url(#clip0_8_2878)" fill="#1656D5" fill-opacity=".05"><path d="M1 0H0v500h1V0zm21.739 0h-1v500h1V0zm21.74 0h-1v500h1V0zm21.738 0h-1v500h1V0zm21.74 0h-1v500h1V0zm43.478 0h-1v500h1V0zm21.739 0h-1v500h1V0zm130.434 0h-1v500h1V0zm-43.477 0h-1v500h1V0zm152.174 0h-1v500h1V0zm-43.479 0h-1v500h1V0zm-43.478 0h-1v500h1V0zm152.174 0h-1v500h1V0zm21.739 0h-1v500h1V0zm-43.478 0h-1v500h1V0zm-21.739 0h-1v500h1V0zm-43.479 0h-1v500h1V0zm-43.478 0h-1v500h1V0zm-65.218 0h-1v500h1V0zm-43.477 0h-1v500h1V0zm-21.74 0h-1v500h1V0zm-21.739 0h-1v500h1V0z"/><path d="M500 .001H0v1h500v-1zm0 21.739H0v1h500v-1zm0 21.741H0v1h500v-1zm0 21.739H0v1h500v-1zm0 21.74H0v1h500v-1zm0 21.741H0v1h500v-1zm0 21.74H0v1h500v-1zm0 43.48H0v1h500v-1zm0-21.74H0v1h500v-1zm0 86.96H0v1h500v-1zm0 152.179H0v1h500v-1zm0 21.741H0v1h500v-1zm0 21.74H0v1h500v-1zm0 21.74H0v1h500v-1zm0 21.739H0v1h500v-1zm0-108.7H0v1h500v-1zm0-43.479H0v1h500v-1zm0-43.48H0v1h500v-1zm0 65.22H0v1h500v-1zm0-43.481H0v1h500v-1zm0-43.479H0v1h500v-1zm0-43.48H0v1h500v-1zm0-21.741H0v1h500v-1z"/><path d="M109.696 0h-1v500h1V0z"/></g><defs><clipPath id="clip0_8_2878"><path fill="#fff" d="M0 0h500v500H0z"/></clipPath></defs></svg>