<?xml version="1.0" encoding="UTF-8"?>
<svg id="_레이어_2" data-name="레이어 2" xmlns="http://www.w3.org/2000/svg" viewBox="0 0 197.78 151.68">
  <defs>
    <style>
      .cls-1 {
        fill: #914c9a;
      }
    </style>
  </defs>
  <g id="_레이어_1-2" data-name="레이어 1">
    <path class="cls-1" d="m192.93,122.53c-3.06-2.8-7.37-5.23-11.67-4.83-12.23,1.12-24.46,1.38-36.66-.05-7.52-1.18-14.77-3.08-21.85-5.9-1.42-.64-2.83-1.31-4.23-2.02,2.2-.93,4.37-1.92,6.48-3,3.44-1.74,6.7-3.78,9.76-6.12,4.02-3.07,7.89-6.17,11.26-9.95,6.62-7.45,11.89-15.98,14.65-25.62,1.36-4.77,2.09-9.9,2.02-14.86-.04-3.08-.51-6.18-1-9.2-.27-1.68-.69-3.34-1.24-4.95-1.47-4.3-3.36-8.63-6-12.36-2.65-3.74-5.53-7.38-9.06-10.33-3.53-2.94-7.23-5.76-11.39-7.73-4.14-1.96-8.46-3.77-12.99-4.56-4.6-.8-9.21-1.38-13.86-.81-3.04.37-6.08.72-9.03,1.57-2.89.83-5.69,2.08-8.42,3.31-4.31,1.94-8.07,4.82-11.71,7.8-3.71,3.04-6.62,6.74-9.49,10.55-2.11,2.79-3.9,5.81-5.35,8.99-1.98,4.38-3.82,8.82-4.81,13.54-2.16,10.28-1.98,20.53.02,30.78-2.21-1.26-4.36-2.62-6.43-4.11-3.83-3.12-7.34-6.61-10.46-10.44-2.3-3.22-4.32-6.62-6-10.19-1-2.68-1.79-5.43-2.33-8.24-.14-1.83-.17-3.66-.06-5.49.5-1.95.55-3.9.12-5.86-.1-2.2-.75-4.24-1.96-6.13-2-3.42-5.93-6.69-9.86-7.58-4.22-.96-8.96-.75-12.71,1.66-3.39,2.19-6.9,5.71-7.58,9.86C.54,33.6.02,37.01,0,40.41c-.02,3.41.49,6.79.98,10.15.6,4.15,1.78,8.17,3.38,12.04,2.06,5,4.26,9.81,7.26,14.32,2.75,4.14,5.84,8.13,9.2,11.8,2.51,2.74,5.23,5.28,8.13,7.6,3.96,3.16,7.98,6.21,12.38,8.74,4.34,2.5,8.97,4.49,13.63,6.31,3.54,1.38,7.19,2.46,10.91,3.23,3.49.72,7.04,1.26,10.61,1.6,3.18,4.14,6.39,8.2,10.32,11.66,3.86,3.4,8.05,6.47,12.54,8.98,4.62,2.58,9.5,4.65,14.39,6.64,7.72,3.14,15.65,5.12,23.89,6.26,10.09,1.4,20.09,2.21,30.29,1.85,4.46-.16,8.92-.48,13.37-.89,2.27.09,4.39-.39,6.36-1.42,2.05-.67,3.82-1.8,5.31-3.41,2.86-2.86,5.02-7.56,4.83-11.67-.19-4.27-1.59-8.69-4.83-11.67ZM100.73,36.78c1.43-.97,2.92-1.84,4.46-2.6,1.34-.46,2.7-.84,4.08-1.13,1.3-.08,2.61-.07,3.91.01,1.6.33,3.17.78,4.72,1.32,1.63.81,3.2,1.73,4.7,2.76,1.32,1.15,2.57,2.39,3.72,3.71.83,1.23,1.59,2.51,2.26,3.83.42,1.22.77,2.46,1.03,3.72.1,1.54.09,3.09,0,4.63-.39,1.98-.92,3.92-1.6,5.81-1.2,2.49-2.6,4.88-4.19,7.14-2.29,2.73-4.82,5.23-7.56,7.51-3.24,2.29-6.69,4.25-10.3,5.91-3.66,1.41-7.42,2.51-11.25,3.31-.23-.48-.45-.97-.67-1.45-1.81-4.67-3.2-9.49-4.05-14.42-.34-3.51-.37-7.04-.08-10.55.49-2.74,1.21-5.42,2.17-8.03,1.14-2.36,2.46-4.63,3.96-6.77,1.44-1.68,3.01-3.24,4.69-4.69Z"/>
  </g>
</svg>