<?xml version="1.0" encoding="UTF-8"?>
<svg id="_레이어_2" data-name="레이어 2" xmlns="http://www.w3.org/2000/svg" viewBox="0 0 201 201">
  <defs>
    <style>
      .cls-1 {
        fill: #00b4d8;
      }
    </style>
  </defs>
  <g id="_레이어_1-2" data-name="레이어 1">
    <path class="cls-1" d="m186,85.5h-49.29l34.85-34.85c5.86-5.86,5.86-15.35,0-21.21-5.86-5.86-15.36-5.86-21.21,0l-34.85,34.85V15c0-8.28-6.72-15-15-15s-15,6.72-15,15v49.29L50.65,29.44c-5.86-5.86-15.36-5.86-21.21,0-5.86,5.86-5.86,15.35,0,21.21l34.85,34.85H15c-8.28,0-15,6.72-15,15s6.72,15,15,15h49.29l-34.85,34.85c-5.86,5.86-5.86,15.35,0,21.21,2.93,2.93,6.77,4.39,10.61,4.39s7.68-1.46,10.61-4.39l34.85-34.85v49.29c0,8.28,6.72,15,15,15s15-6.72,15-15v-49.29l34.85,34.85c2.93,2.93,6.77,4.39,10.61,4.39s7.68-1.46,10.61-4.39c5.86-5.86,5.86-15.35,0-21.21l-34.85-34.85h49.29c8.28,0,15-6.72,15-15s-6.72-15-15-15Z"/>
  </g>
</svg>