<?xml version="1.0" encoding="UTF-8"?>
<svg id="_레이어_2" data-name="레이어 2" xmlns="http://www.w3.org/2000/svg" viewBox="0 0 154.5 154.5">
  <defs>
    <style>
      .cls-1 {
        fill: #b0f484;
      }
    </style>
  </defs>
  <g id="_레이어_1-2" data-name="레이어 1">
    <path class="cls-1" d="m154.5,77.25c0-11.08-8.98-20.06-20.06-20.06h-8.74l6.18-6.18c7.84-7.84,7.84-20.54,0-28.38-7.84-7.84-20.54-7.84-28.38,0l-6.18,6.18v-8.74c0-11.08-8.98-20.06-20.06-20.06s-20.06,8.98-20.06,20.06v8.74l-6.18-6.18c-7.84-7.84-20.54-7.84-28.38,0-7.84,7.84-7.84,20.54,0,28.38l6.18,6.18h-8.74c-11.08,0-20.06,8.98-20.06,20.06s8.98,20.06,20.06,20.06h8.74l-6.18,6.18c-7.84,7.84-7.84,20.54,0,28.38,3.92,3.92,9.05,5.88,14.19,5.88s10.27-1.96,14.19-5.88l6.18-6.18v8.74c0,11.08,8.98,20.06,20.06,20.06s20.06-8.98,20.06-20.06v-8.74l6.18,6.18c3.92,3.92,9.05,5.88,14.19,5.88s10.27-1.96,14.19-5.88c7.84-7.84,7.84-20.54,0-28.38l-6.18-6.18h8.74c11.08,0,20.06-8.98,20.06-20.06Z"/>
  </g>
</svg>